<svg width="90" height="64" viewBox="0 0 90 64" fill="none" xmlns="http://www.w3.org/2000/svg">
<g id="Property 1=&#209;&#129;&#209;&#130;&#208;&#176;&#208;&#189;&#208;&#180;&#208;&#176;&#209;&#128;&#209;&#130;&#208;&#189;&#208;&#190;&#208;&#181;">
<g id="phone-book_9637726 1">
<g id="Group">
<path id="Vector" d="M35.7422 6.96872C34.4141 7.23434 33.2578 8.10153 32.625 9.30466C32.25 10.0234 32.1094 10.6953 32.1094 11.8281V12.75H33.0703C33.6953 12.75 34.1719 12.789 34.4219 12.8672C34.8984 13.0078 35.3984 13.4218 35.6875 13.9062C35.875 14.2343 35.8984 14.3515 35.8984 14.9765C35.8984 15.6015 35.875 15.7187 35.6875 16.0468C35.3984 16.5312 34.8984 16.9453 34.4219 17.0859C34.1719 17.164 33.6953 17.2031 33.0703 17.2031H32.1094V19.4609V21.7109L33.1484 21.7578C33.7188 21.7734 34.3047 21.8437 34.4688 21.8984C35.6953 22.3515 36.2891 23.75 35.75 24.9062C35.2812 25.9062 34.5312 26.2656 32.8828 26.2656H32.1094V28.5312V30.7968H33.0703C33.6953 30.7968 34.1719 30.8359 34.4219 30.914C34.8984 31.0547 35.3984 31.4687 35.6875 31.9531C35.875 32.2812 35.8984 32.3984 35.8984 33.0234C35.8984 33.6484 35.875 33.7656 35.6875 34.0937C35.3984 34.5781 34.8984 34.9922 34.4219 35.1328C34.1719 35.2109 33.6953 35.25 33.0703 35.25H32.1094V36.164C32.1094 37.3047 32.25 37.9765 32.6328 38.7109C33.1406 39.6875 33.9844 40.414 35.1484 40.8672L35.6641 41.0703L46.6562 41.0937C58.7578 41.1172 58.2188 41.1328 59.2734 40.6328C59.9375 40.3203 60.875 39.4062 61.2266 38.7265C61.75 37.7187 61.7188 38.6875 61.7188 24C61.7188 9.31247 61.75 10.2812 61.2266 9.27341C60.875 8.59372 59.9375 7.67966 59.2734 7.36716C58.2344 6.87497 58.7578 6.89059 46.875 6.89841C40.9219 6.90622 35.9141 6.93747 35.7422 6.96872ZM50.625 14.1093C51.0078 14.3125 51.4688 14.7656 51.6641 15.1328C51.8203 15.4218 51.8359 15.5703 51.8594 17.2656C51.8906 19.3203 51.8438 19.5937 51.3594 20.1562C51.2109 20.3281 50.8906 20.5703 50.6406 20.6953C50.2656 20.875 50.0781 20.914 49.4062 20.9375L48.6094 20.9687L48.3594 21.3125C47.2188 22.8984 47.2188 25.1015 48.3594 26.6875L48.6094 27.0312L49.4062 27.0625C50.0781 27.0859 50.2656 27.125 50.6406 27.3047C50.8906 27.4297 51.2109 27.6718 51.3594 27.8437C51.8438 28.4062 51.8906 28.6797 51.8594 30.7343C51.8359 32.7578 51.8203 32.8125 51.2578 33.3984C50.7031 33.9843 50.5312 34.039 48.9297 34.0625C48.0625 34.0781 47.3359 34.0547 47.0781 34C45.6953 33.7109 44.3047 32.375 43.3984 30.4609C42.3516 28.25 41.8125 25.3047 42.0156 22.9218C42.3125 19.5468 43.4375 16.6953 45.1094 15.1172C46.2031 14.0781 46.7109 13.9218 48.8281 13.9453C50.1406 13.9609 50.3906 13.9843 50.625 14.1093Z" fill="#0079C2"/>
<path id="Vector_2" d="M47.1015 14.9609C46.3515 15.1719 45.414 15.9766 44.8046 16.9297C43.8515 18.4141 43.164 20.7109 42.9608 23.0312C42.7343 25.7031 43.5546 29.1875 44.8827 31.1797C45.3358 31.8672 46.1093 32.5938 46.6952 32.875C47.1483 33.1016 47.1561 33.1016 48.6483 33.1016C50.039 33.1016 50.1561 33.0938 50.3593 32.9375C50.8905 32.5469 50.8983 32.5156 50.9218 30.6562C50.9374 29.0156 50.9296 28.9531 50.7655 28.6562C50.4686 28.1406 50.1874 28.0312 49.1171 27.9922L48.203 27.9688L47.8515 27.5625C46.4296 25.9453 46.1561 23.4141 47.1874 21.4375C47.3593 21.1094 47.6561 20.6562 47.8515 20.4375L48.203 20.0312L49.1171 20.0078C50.1874 19.9688 50.4686 19.8594 50.7655 19.3438C50.9296 19.0469 50.9374 18.9844 50.9218 17.3438C50.8983 15.7734 50.8905 15.6328 50.7343 15.4375C50.3515 14.9219 50.2733 14.8984 48.8046 14.8828C47.9061 14.8672 47.3436 14.8984 47.1015 14.9609Z" fill="#0079C2"/>
<path id="Vector_3" d="M29.0625 13.7734C28.5781 13.9687 28.2812 14.4375 28.2812 15C28.2812 15.4219 28.4766 15.7812 28.8516 16.0625C29.0625 16.2187 29.1797 16.2265 31.4688 16.25C34.1797 16.2734 34.3594 16.25 34.75 15.7344C35.0391 15.3515 35.0547 14.6406 34.7734 14.2422C34.3984 13.7187 34.2266 13.6875 31.6016 13.6953C30.2344 13.6953 29.1797 13.7265 29.0625 13.7734Z" fill="#0079C2"/>
<path id="Vector_4" d="M28.9219 22.8828C28.4922 23.0938 28.3203 23.4141 28.3203 24C28.3203 24.3984 28.3594 24.5625 28.4922 24.75C28.8359 25.2344 28.9453 25.25 31.6641 25.25C34.0859 25.25 34.1172 25.25 34.3828 25.0703C35.2109 24.5156 35.2109 23.4844 34.3828 22.9297C34.1172 22.75 34.0859 22.75 31.6484 22.75C29.5312 22.75 29.1406 22.7734 28.9219 22.8828Z" fill="#0079C2"/>
<path id="Vector_5" d="M29.0625 31.8203C28.5781 32.0156 28.2812 32.4844 28.2812 33.0469C28.2812 33.4687 28.4766 33.8281 28.8516 34.1094C29.0625 34.2656 29.1797 34.2734 31.4688 34.2969C34.1797 34.3203 34.3594 34.2969 34.75 33.7812C35.0391 33.3984 35.0547 32.6875 34.7734 32.289C34.3984 31.7656 34.2266 31.7344 31.6016 31.7422C30.2344 31.7422 29.1797 31.7734 29.0625 31.8203Z" fill="#0079C2"/>
</g>
</g>
<path id="&#208;&#162;&#208;&#181;&#208;&#187;. &#209;&#129;&#208;&#191;&#209;&#128;&#208;&#176;&#208;&#178;&#208;&#190;&#209;&#135;&#208;&#189;&#208;&#184;&#208;&#186;" d="M4.44034 51.6719V50.7273H10.0689V51.6719H7.79972V58H6.70597V51.6719H4.44034ZM12.7873 58.1101C12.2499 58.1101 11.7871 57.9953 11.3988 57.7656C11.0129 57.5336 10.7146 57.2081 10.5039 56.7891C10.2956 56.3677 10.1914 55.8741 10.1914 55.3082C10.1914 54.7495 10.2956 54.2571 10.5039 53.831C10.7146 53.4048 11.0082 53.0722 11.3846 52.8331C11.7634 52.594 12.2061 52.4744 12.7127 52.4744C13.0205 52.4744 13.3188 52.5253 13.6076 52.6271C13.8964 52.7289 14.1557 52.8887 14.3853 53.1065C14.6149 53.3243 14.796 53.6072 14.9286 53.9553C15.0612 54.3009 15.1275 54.7211 15.1275 55.2159V55.5923H10.7915V54.7969H14.087C14.087 54.5175 14.0302 54.2701 13.9165 54.0547C13.8029 53.8369 13.6431 53.6652 13.4371 53.5398C13.2335 53.4143 12.9944 53.3516 12.7198 53.3516C12.4215 53.3516 12.1611 53.425 11.9386 53.5717C11.7184 53.7161 11.5479 53.9055 11.4272 54.1399C11.3088 54.3719 11.2496 54.6241 11.2496 54.8963V55.5178C11.2496 55.8823 11.3136 56.1925 11.4414 56.4482C11.5716 56.7038 11.7527 56.8991 11.9847 57.0341C12.2167 57.1667 12.4878 57.233 12.7979 57.233C12.9992 57.233 13.1826 57.2045 13.3484 57.1477C13.5141 57.0885 13.6573 57.0009 13.7781 56.8849C13.8988 56.7689 13.9911 56.6257 14.055 56.4553L15.06 56.6364C14.9795 56.9323 14.8351 57.1915 14.6268 57.4141C14.4208 57.6342 14.1616 57.8059 13.8491 57.929C13.5389 58.0497 13.185 58.1101 12.7873 58.1101ZM15.8759 58L15.8723 57.0803H16.0676C16.2192 57.0803 16.3458 57.0483 16.4476 56.9844C16.5518 56.9181 16.637 56.8068 16.7033 56.6506C16.7696 56.4943 16.8205 56.2789 16.856 56.0043C16.8915 55.7273 16.9176 55.3793 16.9341 54.9602L17.03 52.5455H20.8368V58H19.7963V53.4616H18.0137L17.9284 55.3153C17.9071 55.7652 17.861 56.1581 17.79 56.4943C17.7213 56.8305 17.6207 57.111 17.4881 57.3359C17.3555 57.5585 17.1851 57.7254 16.9767 57.8366C16.7684 57.9455 16.5151 58 16.2168 58H15.8759ZM22.9524 58.0675C22.7583 58.0675 22.5914 57.9988 22.4517 57.8615C22.312 57.7218 22.2422 57.5537 22.2422 57.3572C22.2422 57.1631 22.312 56.9974 22.4517 56.8601C22.5914 56.7204 22.7583 56.6506 22.9524 56.6506C23.1465 56.6506 23.3134 56.7204 23.4531 56.8601C23.5928 56.9974 23.6626 57.1631 23.6626 57.3572C23.6626 57.4875 23.6295 57.607 23.5632 57.7159C23.4993 57.8224 23.4141 57.9077 23.3075 57.9716C23.201 58.0355 23.0826 58.0675 22.9524 58.0675ZM29.9118 58.1101C29.3838 58.1101 28.9293 57.9905 28.5481 57.7514C28.1693 57.5099 27.8781 57.1773 27.6745 56.7536C27.4709 56.3298 27.3691 55.8445 27.3691 55.2976C27.3691 54.7436 27.4733 54.2547 27.6816 53.831C27.89 53.4048 28.1835 53.0722 28.5623 52.8331C28.9411 52.594 29.3874 52.4744 29.9011 52.4744C30.3154 52.4744 30.6847 52.5514 31.0091 52.7053C31.3334 52.8568 31.595 53.0698 31.7939 53.3445C31.9951 53.6191 32.1146 53.9399 32.1525 54.3068H31.1191C31.0623 54.0511 30.9321 53.831 30.7285 53.6463C30.5273 53.4616 30.2574 53.3693 29.9189 53.3693C29.6229 53.3693 29.3637 53.4474 29.1412 53.6037C28.921 53.7576 28.7493 53.9777 28.6262 54.2642C28.5031 54.5483 28.4416 54.8845 28.4416 55.2727C28.4416 55.6705 28.502 56.0137 28.6227 56.3026C28.7434 56.5914 28.9139 56.8151 29.1341 56.9737C29.3566 57.1323 29.6182 57.2116 29.9189 57.2116C30.1201 57.2116 30.3024 57.175 30.4657 57.1016C30.6315 57.0258 30.7699 56.9181 30.8812 56.7784C30.9949 56.6387 31.0742 56.4706 31.1191 56.2741H32.1525C32.1146 56.6269 31.9998 56.9418 31.8081 57.2188C31.6163 57.4957 31.3594 57.7135 31.0375 57.8722C30.7179 58.0308 30.3426 58.1101 29.9118 58.1101ZM33.288 58V52.5455H37.7376V58H36.6971V53.4616H34.3214V58H33.288ZM39.1571 60.0455V52.5455H40.1941V53.4297H40.2828C40.3444 53.3161 40.4332 53.1847 40.5492 53.0355C40.6652 52.8864 40.8262 52.7562 41.0321 52.6449C41.2381 52.5312 41.5104 52.4744 41.8489 52.4744C42.2892 52.4744 42.6822 52.5857 43.0279 52.8082C43.3735 53.0308 43.6446 53.3516 43.8411 53.7706C44.04 54.1896 44.1394 54.6939 44.1394 55.2834C44.1394 55.8729 44.0411 56.3783 43.8446 56.7997C43.6481 57.2187 43.3783 57.5419 43.035 57.7692C42.6917 57.9941 42.2999 58.1065 41.8596 58.1065C41.5281 58.1065 41.257 58.0509 41.0463 57.9396C40.838 57.8284 40.6747 57.6982 40.5563 57.549C40.4379 57.3999 40.3468 57.2673 40.2828 57.1513H40.2189V60.0455H39.1571ZM40.1976 55.2727C40.1976 55.6562 40.2533 55.9924 40.3645 56.2812C40.4758 56.5701 40.6368 56.7962 40.8475 56.9595C41.0582 57.1205 41.3162 57.201 41.6216 57.201C41.9389 57.201 42.204 57.117 42.4171 56.9489C42.6301 56.7784 42.7911 56.5476 42.9 56.2564C43.0113 55.9652 43.0669 55.6373 43.0669 55.2727C43.0669 54.9129 43.0125 54.5897 42.9036 54.3033C42.7971 54.0168 42.6361 53.7907 42.4206 53.625C42.2076 53.4593 41.9412 53.3764 41.6216 53.3764C41.3139 53.3764 41.0534 53.4557 40.8404 53.6143C40.6297 53.773 40.4699 53.9943 40.361 54.2784C40.2521 54.5625 40.1976 54.8939 40.1976 55.2727ZM46.9164 58.1207C46.5707 58.1207 46.2582 58.0568 45.9789 57.929C45.6995 57.7988 45.4782 57.6106 45.3148 57.3643C45.1538 57.1181 45.0733 56.8163 45.0733 56.4588C45.0733 56.151 45.1325 55.8977 45.2509 55.6989C45.3693 55.5 45.5291 55.3426 45.7303 55.2266C45.9315 55.1106 46.1564 55.023 46.405 54.9638C46.6536 54.9046 46.9069 54.8596 47.165 54.8288C47.4917 54.791 47.7568 54.7602 47.9604 54.7365C48.164 54.7105 48.312 54.669 48.4043 54.6122C48.4966 54.5554 48.5428 54.4631 48.5428 54.3352V54.3104C48.5428 54.0002 48.4552 53.7599 48.28 53.5895C48.1072 53.419 47.8491 53.3338 47.5059 53.3338C47.1484 53.3338 46.8667 53.4131 46.6607 53.5717C46.4571 53.728 46.3162 53.902 46.2381 54.0938L45.2402 53.8665C45.3586 53.535 45.5314 53.2675 45.7587 53.0639C45.9883 52.858 46.2523 52.7088 46.5506 52.6165C46.8489 52.5218 47.1626 52.4744 47.4917 52.4744C47.7095 52.4744 47.9403 52.5005 48.1841 52.5526C48.4303 52.6023 48.66 52.6946 48.873 52.8295C49.0885 52.9645 49.2649 53.1574 49.4022 53.4084C49.5395 53.657 49.6081 53.9801 49.6081 54.3778V58H48.5712V57.2543H48.5286C48.4599 57.3916 48.3569 57.5265 48.2196 57.6591C48.0823 57.7917 47.906 57.9018 47.6905 57.9893C47.4751 58.0769 47.217 58.1207 46.9164 58.1207ZM47.1472 57.2685C47.4408 57.2685 47.6917 57.2105 47.9 57.0945C48.1107 56.9785 48.2705 56.8269 48.3794 56.6399C48.4907 56.4505 48.5463 56.2481 48.5463 56.0327V55.3295C48.5085 55.3674 48.4351 55.4029 48.3262 55.4361C48.2196 55.4669 48.0977 55.4941 47.9604 55.5178C47.8231 55.5391 47.6893 55.5592 47.5591 55.5781C47.4289 55.5947 47.32 55.6089 47.2324 55.6207C47.0265 55.6468 46.8382 55.6906 46.6678 55.7521C46.4997 55.8137 46.3648 55.9025 46.263 56.0185C46.1635 56.1321 46.1138 56.2836 46.1138 56.473C46.1138 56.7358 46.2109 56.9347 46.405 57.0696C46.5991 57.2022 46.8465 57.2685 47.1472 57.2685ZM51.0224 58V52.5455H53.2844C53.9 52.5455 54.3877 52.6768 54.7475 52.9396C55.1074 53.2 55.2873 53.554 55.2873 54.0014C55.2873 54.321 55.1855 54.5743 54.9819 54.7614C54.7783 54.9484 54.5084 55.0739 54.1722 55.1378C54.4161 55.1662 54.6398 55.2396 54.8434 55.358C55.047 55.474 55.2103 55.6302 55.3335 55.8267C55.4589 56.0232 55.5217 56.2576 55.5217 56.5298C55.5217 56.8187 55.4471 57.0743 55.2979 57.2969C55.1488 57.517 54.9322 57.6899 54.6481 57.8153C54.3664 57.9384 54.0266 58 53.6289 58H51.0224ZM52.0202 57.1122H53.6289C53.8917 57.1122 54.0977 57.0495 54.2468 56.924C54.396 56.7985 54.4705 56.6281 54.4705 56.4126C54.4705 56.1593 54.396 55.9605 54.2468 55.8161C54.0977 55.6693 53.8917 55.5959 53.6289 55.5959H52.0202V57.1122ZM52.0202 54.8182H53.2951C53.494 54.8182 53.6644 54.7898 53.8065 54.733C53.9509 54.6761 54.061 54.5956 54.1367 54.4915C54.2148 54.3849 54.2539 54.2595 54.2539 54.1151C54.2539 53.9044 54.1675 53.7398 53.9947 53.6214C53.8219 53.5031 53.5851 53.4439 53.2844 53.4439H52.0202V54.8182ZM58.984 58.1101C58.4727 58.1101 58.0264 57.9929 57.6452 57.7585C57.2641 57.5241 56.9682 57.1963 56.7575 56.7749C56.5468 56.3535 56.4414 55.861 56.4414 55.2976C56.4414 54.7318 56.5468 54.237 56.7575 53.8132C56.9682 53.3894 57.2641 53.0604 57.6452 52.826C58.0264 52.5916 58.4727 52.4744 58.984 52.4744C59.4954 52.4744 59.9416 52.5916 60.3228 52.826C60.704 53.0604 60.9999 53.3894 61.2106 53.8132C61.4213 54.237 61.5266 54.7318 61.5266 55.2976C61.5266 55.861 61.4213 56.3535 61.2106 56.7749C60.9999 57.1963 60.704 57.5241 60.3228 57.7585C59.9416 57.9929 59.4954 58.1101 58.984 58.1101ZM58.9876 57.2188C59.319 57.2188 59.5936 57.1312 59.8114 56.956C60.0292 56.7808 60.1902 56.5476 60.2944 56.2564C60.4009 55.9652 60.4542 55.6444 60.4542 55.294C60.4542 54.946 60.4009 54.6264 60.2944 54.3352C60.1902 54.0417 60.0292 53.8061 59.8114 53.6286C59.5936 53.451 59.319 53.3622 58.9876 53.3622C58.6538 53.3622 58.3768 53.451 58.1566 53.6286C57.9388 53.8061 57.7766 54.0417 57.6701 54.3352C57.5659 54.6264 57.5138 54.946 57.5138 55.294C57.5138 55.6444 57.5659 55.9652 57.6701 56.2564C57.7766 56.5476 57.9388 56.7808 58.1566 56.956C58.3768 57.1312 58.6538 57.2188 58.9876 57.2188ZM67.0904 52.5455V58H66.0534V52.5455H67.0904ZM66.6394 55.0774V55.9936C66.476 56.0599 66.3032 56.1191 66.1209 56.1712C65.9386 56.2209 65.7469 56.2599 65.5456 56.2884C65.3444 56.3168 65.1349 56.331 64.9171 56.331C64.2424 56.331 63.7061 56.1664 63.3084 55.8374C62.9107 55.5059 62.7118 54.9993 62.7118 54.3175V52.5348H63.7452V54.3175C63.7452 54.5755 63.7926 54.785 63.8873 54.946C63.9819 55.107 64.1169 55.2254 64.2921 55.3011C64.4673 55.3769 64.6756 55.4148 64.9171 55.4148C65.2367 55.4148 65.5314 55.3852 65.8013 55.326C66.0736 55.2644 66.3529 55.1816 66.6394 55.0774ZM72.1996 54.8146V55.7344H69.245V54.8146H72.1996ZM69.5433 52.5455V58H68.5028V52.5455H69.5433ZM72.9418 52.5455V58H71.9048V52.5455H72.9418ZM75.4027 56.5121L77.8068 52.5455H78.9503V58H77.9098V54.0298L75.5163 58H74.3622V52.5455H75.4027V56.5121ZM80.3778 58V52.5455H81.4396V54.8324H81.951L83.7514 52.5455H85.0653L82.9524 55.1982L85.0902 58H83.7727L82.1286 55.8196H81.4396V58H80.3778Z" fill="#0079C2"/>
</g>
</svg>
